<svg xmlns="http://www.w3.org/2000/svg" viewBox="0 0 152.8 114.65"><defs><style>.cls-1{fill:#557ebf;}.cls-2{fill:#36a852;}.cls-3{fill:#f9bc15;}.cls-4{fill:#ea4535;}.cls-5{fill:#c52627;}</style></defs><title>gmail</title><g id="Layer_2" data-name="Layer 2"><g id="Layer_1-2" data-name="Layer 1"><path class="cls-1" d="M10.4,114.65H34.7v-59L0,29.65v74.7A10.37,10.37,0,0,0,10.4,114.65Z"/><path class="cls-2" d="M118.1,114.65h24.3a10.39,10.39,0,0,0,10.4-10.4V29.55l-34.7,26v59.1Z"/><path class="cls-3" d="M118.1,10.45v45.1l34.7-26V15.65a15.63,15.63,0,0,0-25-12.5Z"/><path class="cls-4" d="M34.7,55.65V10.55l41.7,31.3,41.7-31.3v45.1L76.4,86.85Z"/><path class="cls-5" d="M0,15.65v13.9l34.7,26V10.45L25,3.15A15.65,15.65,0,0,0,0,15.65Z"/></g></g></svg>